<svg id="Layer_1" data-name="Layer 1" xmlns="http://www.w3.org/2000/svg" viewBox="0 0 864 263"><defs><style>.cls-1{fill:none;}.cls-2{fill:#212121;}</style></defs><title>trenchant_logo</title><rect class="cls-1" width="864" height="263"/><path class="cls-2" d="M69.9,130.13v-2.42a94.56,94.56,0,0,0,8.81-3.91V106.28a47.76,47.76,0,0,0,9.74-4.43L89.83,103q-0.64,4.77-1.38,21.09l5.53,0c0.35,0,2.33,0,5.94-.1,2,0,3.5-.11,4.49-0.23l0.4,0.39-1.21,5.37c-2.42,0-4.65-.06-6.68-0.06s-4.86,0-8.47.06L88.16,153a85.63,85.63,0,0,0,.12,10.26,7.5,7.5,0,0,0,1.08,2.91,6.15,6.15,0,0,0,2.09,2,12.71,12.71,0,0,0,4.4,1.15,30,30,0,0,0,3.82-.2,19.47,19.47,0,0,0,3.7-1l0.69,2.24q-2.7,2.13-5.24,4.44a19.81,19.81,0,0,1-4.09,1.06,32.78,32.78,0,0,1-4.37.26,14,14,0,0,1-4.86-.69,11.68,11.68,0,0,1-3.31-1.94,9.91,9.91,0,0,1-2.48-3.14,16.1,16.1,0,0,1-1.29-6c0-2.61.12-5.48,0.23-8.58,0-.61.06-1.29,0.06-2V129.85H76.35C74.43,129.85,72.28,129.93,69.9,130.13Z" transform="translate(-1.27 1.37)"/><path class="cls-2" d="M132,175.3V172c4.37-.08,6.72-0.15,7.07-0.23a3.41,3.41,0,0,0,1.47-.55,2.57,2.57,0,0,0,.78-1.06,12.35,12.35,0,0,0,.69-4.14q0.29-15.39.29-16.08v-6.86c0-3.07-.06-6.37-0.17-9.9a12.2,12.2,0,0,0-.49-4,2.27,2.27,0,0,0-1.32-.95q-1-.32-7.51-0.26v-3.3q11.64-1.6,17-4.2a4.43,4.43,0,0,1,1.55-.57,0.79,0.79,0,0,1,.63.29,1.34,1.34,0,0,1,.23.86,8.7,8.7,0,0,1-.06.92q-0.29,3.52-.34,10.89c1.73-2,3.32-4,4.78-5.93a29.51,29.51,0,0,1,3.16-3.81,14.06,14.06,0,0,1,4-2.39,12.6,12.6,0,0,1,4.66-.89,11.85,11.85,0,0,1,4.78,1l0.34,0.82q-0.86,7.66-1,13.47H170a10.31,10.31,0,0,0-3.08-4,7.31,7.31,0,0,0-4.4-1.27A9.58,9.58,0,0,0,155,133.5q-3.11,3.67-3.11,11v5.94q0,3.8.29,13.88a29.71,29.71,0,0,0,.29,4.55,3.37,3.37,0,0,0,.61,1.42,2.81,2.81,0,0,0,1.24.71,61.57,61.57,0,0,0,9.34,1v3.29q-10.15-.4-17.29-0.4Q139,174.9,132,175.3Z" transform="translate(-1.27 1.37)"/><path class="cls-2" d="M248.39,166.36l-1.84,4.14a53,53,0,0,1-5.81,3.29,35.33,35.33,0,0,1-6.2,2.06,31.58,31.58,0,0,1-7.34.84,29.67,29.67,0,0,1-13.77-3.17,22.38,22.38,0,0,1-9.6-9.48,30.43,30.43,0,0,1-3.42-14.78,37,37,0,0,1,1.81-12,22.57,22.57,0,0,1,4.12-7.86,30.61,30.61,0,0,1,5.19-4.25,37.34,37.34,0,0,1,7-3.77,25.33,25.33,0,0,1,9.85-1.9A23.39,23.39,0,0,1,240,122.46a18,18,0,0,1,7.63,8,26.33,26.33,0,0,1,2.42,11.46,30.45,30.45,0,0,1-.29,3.92,60.67,60.67,0,0,1-7.41,1q-6.22.47-12.43,0.46H211.47q0.11,8.27,2.85,13.37a17.27,17.27,0,0,0,7.54,7.54,21.94,21.94,0,0,0,10,2.42,22.59,22.59,0,0,0,7-1.14,45.69,45.69,0,0,0,8.6-4.18ZM211.47,142.8c1.06,0.11,3.11.23,6.1,0.34,5.73,0.2,9.66.29,11.81,0.29q7.66,0,10.08-.29c0-.92.07-1.63,0.07-2.13q0-9.1-3.69-13.36a12.37,12.37,0,0,0-9.85-4.27,13.1,13.1,0,0,0-10.48,4.68Q211.53,132.72,211.47,142.8Z" transform="translate(-1.27 1.37)"/><path class="cls-2" d="M279.2,175.3V172l5.51-.06a4.19,4.19,0,0,0,1.88-.43,2.68,2.68,0,0,0,1-.95,10.55,10.55,0,0,0,.82-4.09c0-.5.08-6,0.29-16.54v-6.86c0-3.07-.06-6.37-0.18-9.9a12.56,12.56,0,0,0-.54-4,2.29,2.29,0,0,0-1.3-.95c-0.61-.22-3.11-0.3-7.48-0.26v-3.3q11.63-1.6,17-4.2a4.52,4.52,0,0,1,1.55-.57,0.78,0.78,0,0,1,.64.29,1.39,1.39,0,0,1,.22.86,7.18,7.18,0,0,1-.06.92q-0.17,2.07-.34,8.76l10.72-9.17a26.12,26.12,0,0,1,8.94-1.73,21.09,21.09,0,0,1,8.84,1.9,15.48,15.48,0,0,1,6.28,4.79,16.57,16.57,0,0,1,2.79,7.25,142.68,142.68,0,0,1,.4,14.46v10.19a83.79,83.79,0,0,0,.4,10.2,4.73,4.73,0,0,0,.89,2.39,3,3,0,0,0,1.87.83l6.17,0.17v3.29q-5.65-.4-9.4-0.4-3.23,0-10.72.4,0.82-14.23.81-18v-9.68q0-9-.69-11.87a10.46,10.46,0,0,0-4.43-6.22,14.5,14.5,0,0,0-8.35-2.36,15.52,15.52,0,0,0-7.89,2,13.13,13.13,0,0,0-5.1,4.72c-1,1.78-1.53,4.79-1.53,9v7q0.29,15,.29,16.19a12.58,12.58,0,0,0,.7,4.21,2.25,2.25,0,0,0,.69.89,3.6,3.6,0,0,0,1.45.6q0.35,0.06,6.37.17v3.29q-7-.4-12.73-0.4Q290.15,174.9,279.2,175.3Z" transform="translate(-1.27 1.37)"/><path class="cls-2" d="M419.86,168.73l-2.31,3.86a34.28,34.28,0,0,1-7.85,3.12,36.08,36.08,0,0,1-8.79,1q-12.1,0-19.27-7.3t-7.17-20a32.51,32.51,0,0,1,1.93-11.73,21.25,21.25,0,0,1,4.76-7.71,37.37,37.37,0,0,1,7.22-4.92,76.78,76.78,0,0,1,7.47-3.89,23.7,23.7,0,0,1,9.39-1.68,37,37,0,0,1,9.33,1.09,20.11,20.11,0,0,1,5.3,2.3c-0.44,3-.75,5.19-0.95,6.72s-0.42,4.26-.72,8.26h-3.29a54.41,54.41,0,0,0-.69-7,3.16,3.16,0,0,0-1-1.55,19.53,19.53,0,0,0-5.35-2.81,21.05,21.05,0,0,0-7.13-1.18,17,17,0,0,0-8.4,2,13.16,13.16,0,0,0-5.51,6.32,25.92,25.92,0,0,0-2,10.73,35.18,35.18,0,0,0,2.76,14.19,19.56,19.56,0,0,0,7.52,9.26,19.93,19.93,0,0,0,10.63,2.91,22.82,22.82,0,0,0,5.73-.72,44.35,44.35,0,0,0,7.17-2.74Z" transform="translate(-1.27 1.37)"/><path class="cls-2" d="M446.58,175.3V172L452,172a4.18,4.18,0,0,0,1.93-.43,2.61,2.61,0,0,0,1-.95,10,10,0,0,0,.76-4.09q0.05-.76.4-16.54V120.16q0-9.63-.29-19.87c-0.15-4.6-.36-7.2-0.64-7.73a1.63,1.63,0,0,0-.93-0.81c-0.58-.27-3.24-0.4-8-0.4V88q13-1.62,18.09-4a3,3,0,0,1,1.15-.35,0.83,0.83,0,0,1,.63.24,1.07,1.07,0,0,1,.23.73,8.68,8.68,0,0,1-.1,1.15l-0.06,1.9q-0.26,10.32-.32,17.57l-0.1,9V131q0.81-.63,4.55-3.91c2.49-2.19,4-3.5,4.43-3.93a9.58,9.58,0,0,1,1.73-1.38,17,17,0,0,1,3.27-1.15,22.5,22.5,0,0,1,5.81-.81,21.18,21.18,0,0,1,10,2.5,14.46,14.46,0,0,1,6.59,6.3c1.22,2.55,1.84,6.29,1.84,11.25V150l0.15,7.95q0.14,7.43.14,8.35a11.57,11.57,0,0,0,.69,4,2.32,2.32,0,0,0,.7,1,3.1,3.1,0,0,0,1.4.55c0.23,0,2.24.09,6,.17v3.29c-4.39-.2-7.57-0.29-9.57-0.29-1.7,0-5.17.09-10.43,0.29q0.81-8.52.81-16.59V144.41c0-4.45-.32-7.66-1-9.62a11.16,11.16,0,0,0-4-5.27,12.86,12.86,0,0,0-8-2.33,16.32,16.32,0,0,0-5.64.91,14.33,14.33,0,0,0-4.56,2.76,21.78,21.78,0,0,0-3.51,4,6.27,6.27,0,0,0-.92,2.52,47.39,47.39,0,0,0-.23,5.9V150q0.24,14.92.29,16.14a12.43,12.43,0,0,0,.71,4.21,2.1,2.1,0,0,0,.69,1,3.08,3.08,0,0,0,1.39.55q0.39,0.06,6.43.17v3.29c-6.84-.27-11.57-0.4-14.17-0.4Q458,174.9,446.58,175.3Z" transform="translate(-1.27 1.37)"/><path class="cls-2" d="M550.6,135.83l-3.06-.81c0-.88.06-2.09,0.06-3.62s0-2.91-.06-3.86a61.8,61.8,0,0,1,12-6.46,25,25,0,0,1,8-1.21,22.69,22.69,0,0,1,11.08,2.47,15.52,15.52,0,0,1,6.69,7.09,21.21,21.21,0,0,1,1.5,8.82l-0.29,10.53V166a12.35,12.35,0,0,0,.46,4,2.39,2.39,0,0,0,1.09,1.27,6.22,6.22,0,0,0,2.42.46l3.75,0.35v3.29c-3.15-.27-5.91-0.4-8.3-0.4s-5.37.14-9.21,0.4L577,165.15q-11.75,8.88-13.94,10a12.08,12.08,0,0,1-5.53,1.12q-7,0-10.85-3.71a13,13,0,0,1-3.89-9.88,18.93,18.93,0,0,1,1.35-7.26,16.19,16.19,0,0,1,3.26-5.21,13.93,13.93,0,0,1,3.85-2.86A62.71,62.71,0,0,1,562.15,144,128.78,128.78,0,0,1,577,141.36a20.73,20.73,0,0,0-1.32-8.53,11.29,11.29,0,0,0-4.67-5,15.33,15.33,0,0,0-8-2,17.53,17.53,0,0,0-6,.94,8.9,8.9,0,0,0-3.14,1.55l-1,2.07C551.86,132.72,551.09,134.52,550.6,135.83ZM577,144.88a112.61,112.61,0,0,0-12.79,2.82,24.05,24.05,0,0,0-7.49,3.23,7.85,7.85,0,0,0-2.3,2.93,13.67,13.67,0,0,0-1.5,6.4,9,9,0,0,0,2.36,6.65,8.82,8.82,0,0,0,6.57,2.39,15,15,0,0,0,7.63-2.22,30.13,30.13,0,0,0,7.52-6.65V144.88Z" transform="translate(-1.27 1.37)"/><path class="cls-2" d="M622.3,175.3V172l5.51-.06a4.16,4.16,0,0,0,1.88-.43,2.71,2.71,0,0,0,1-.95,10.53,10.53,0,0,0,.81-4.09q0-.76.29-16.54v-6.86c0-3.07-.06-6.37-0.17-9.9a13,13,0,0,0-.55-4,2.28,2.28,0,0,0-1.29-.95q-0.93-.32-7.5-0.26v-3.3q11.63-1.6,17-4.2a4.59,4.59,0,0,1,1.56-.57,0.78,0.78,0,0,1,.63.29,1.39,1.39,0,0,1,.23.86c0,0.27,0,.58,0,0.92-0.12,1.38-.23,4.3-0.34,8.76l10.7-9.17a26.11,26.11,0,0,1,8.94-1.73,21.16,21.16,0,0,1,8.85,1.9,15.42,15.42,0,0,1,6.27,4.79,16.48,16.48,0,0,1,2.79,7.25q0.41,2.59.4,14.46v10.19a83.73,83.73,0,0,0,.4,10.2,4.89,4.89,0,0,0,.9,2.39,3,3,0,0,0,1.87.83l6.17,0.17v3.29c-3.77-.27-6.89-0.4-9.39-0.4q-3.23,0-10.72.4,0.81-14.23.81-18v-9.68q0-9-.7-11.87a10.47,10.47,0,0,0-4.44-6.22,14.48,14.48,0,0,0-8.34-2.36,15.57,15.57,0,0,0-7.9,2,13.11,13.11,0,0,0-5.09,4.72q-1.53,2.67-1.53,9v7q0.28,15,.29,16.19a12.32,12.32,0,0,0,.69,4.21,2.44,2.44,0,0,0,.69.89,3.62,3.62,0,0,0,1.45.6c0.23,0,2.36.09,6.37,0.17v3.29q-7-.4-12.73-0.4Q633.24,174.9,622.3,175.3Z" transform="translate(-1.27 1.37)"/><path class="cls-2" d="M715.61,130.13v-2.42a94.42,94.42,0,0,0,8.81-3.91V106.28a48.19,48.19,0,0,0,9.74-4.43l1.38,1.15q-0.64,4.77-1.38,21.09l5.53,0c0.35,0,2.32,0,5.94-.1,2,0,3.5-.11,4.5-0.23l0.4,0.39-1.21,5.37c-2.42,0-4.65-.06-6.69-0.06s-4.86,0-8.46.06L733.88,153a87.37,87.37,0,0,0,.11,10.26,7.67,7.67,0,0,0,1.09,2.91,6,6,0,0,0,2.09,2,12.71,12.71,0,0,0,4.4,1.15,29.85,29.85,0,0,0,3.81-.2,19.81,19.81,0,0,0,3.71-1l0.69,2.24q-2.71,2.13-5.24,4.44a19.88,19.88,0,0,1-4.08,1.06,32.88,32.88,0,0,1-4.37.26,14,14,0,0,1-4.86-.69,11.65,11.65,0,0,1-3.31-1.94,10,10,0,0,1-2.49-3.14,16.13,16.13,0,0,1-1.28-6q0.05-3.92.23-8.58c0-.61.06-1.29,0.06-2V129.85h-2.36C720.14,129.85,718,129.93,715.61,130.13Z" transform="translate(-1.27 1.37)"/><path class="cls-2" d="M789.79,162.1a6.59,6.59,0,0,1,4.87,2,6.72,6.72,0,0,1,2,4.89,6.89,6.89,0,0,1-13.77,0A6.88,6.88,0,0,1,789.79,162.1Z" transform="translate(-1.27 1.37)"/><path class="cls-2" d="M847,236.86H19.54V23.4H847V236.86Zm-820.48-7H840V30.38H26.52V229.89Z" transform="translate(-1.27 1.37)"/></svg>